<?xml version="1.0" encoding="utf-8"?>
<!-- Generator: Adobe Illustrator 17.0.2, SVG Export Plug-In . SVG Version: 6.00 Build 0)  -->
<!DOCTYPE svg PUBLIC "-//W3C//DTD SVG 1.1//EN" "http://www.w3.org/Graphics/SVG/1.1/DTD/svg11.dtd">
<svg version="1.1" id="Layer_1" xmlns="http://www.w3.org/2000/svg" xmlns:xlink="http://www.w3.org/1999/xlink" x="0px" y="0px"
	 width="170px" height="170px" viewBox="0 0 450 450" enable-background="new 0 0 450 450" xml:space="preserve">
<g>
	<g>
		<g>
			<circle fill="#F4971B" cx="225" cy="225" r="225"/>
		</g>
	</g>
	<g>
		<g>
			<g>
				<g>
					<rect x="224.459" y="120.664" fill="#FFFFFF" width="4.327" height="129.908"/>
				</g>
			</g>
		</g>
		<g>
			<g>
				<g>
					<path fill="#252C3D" d="M252.584,242.123c0,4.76-3.894,8.654-8.654,8.654h-34.617c-4.76,0-8.654-3.894-8.654-8.654v-34.617
						c0-4.76,3.894-8.654,8.654-8.654h34.617c4.76,0,8.654,3.894,8.654,8.654V242.123z"/>
				</g>
			</g>
		</g>
		<g>
			<g>
				<g>
					<rect x="200.659" y="213.394" fill="#6FBFC4" width="51.925" height="11.421"/>
				</g>
			</g>
		</g>
		<g>
			<g>
				<g>
					<g>
						<g>
							<rect x="121.154" y="120.564" fill="#FFFFFF" width="169.154" height="181.73"/>
						</g>
					</g>
				</g>
				<g>
					<g>
						<g>
							<circle fill="#FFFFFF" cx="147.115" cy="302.393" r="25.962"/>
						</g>
					</g>
				</g>
				<g>
					<g>
						<g>
							<circle fill="#FFFFFF" cx="264.346" cy="302.393" r="25.962"/>
						</g>
					</g>
				</g>
				<g>
					<g>
						<g>
							<rect x="147.115" y="250.572" fill="#FFFFFF" width="117.231" height="77.783"/>
						</g>
					</g>
				</g>
				<g>
					<g>
						<g>
							<path fill="#FFFFFF" d="M290.308,173.241c26.315,0,47.725,21.41,47.725,47.725s-21.409,47.725-47.725,47.725
								s-47.725-21.41-47.725-47.725S263.992,173.241,290.308,173.241L290.308,173.241z M290.308,155.933
								c-35.917,0-65.032,29.116-65.032,65.033c0,35.917,29.116,65.033,65.032,65.033c35.917,0,65.032-29.116,65.032-65.033
								C355.34,185.049,326.224,155.933,290.308,155.933L290.308,155.933z"/>
						</g>
					</g>
				</g>
			</g>
			<g>
				<g>
					<g>
						<rect x="224.459" y="120.664" fill="#ABADB4" width="4.327" height="129.908"/>
					</g>
				</g>
			</g>
			<g>
				<g>
					<g>
						<path fill="#252C3D" d="M252.584,242.123c0,4.76-3.894,8.654-8.654,8.654h-34.617c-4.76,0-8.654-3.894-8.654-8.654v-34.617
							c0-4.76,3.894-8.654,8.654-8.654h34.617c4.76,0,8.654,3.894,8.654,8.654V242.123z"/>
					</g>
				</g>
			</g>
			<g>
				<g>
					<g>
						<rect x="200.659" y="213.394" fill="#6FBFC4" width="51.925" height="11.421"/>
					</g>
				</g>
			</g>
		</g>
	</g>
	<g>
		<g>
			<g>
				<path fill="#F07E1B" d="M338.032,220.966c0-26.315-21.409-47.725-47.725-47.725v95.45
					C316.623,268.691,338.032,247.281,338.032,220.966z"/>
			</g>
			<g>
				<path fill="#F07E1B" d="M309.576,139.833l-19.268-19.268v35.369c1.037,0,2.068,0.027,3.093,0.075
					c34.48,1.615,61.939,30.078,61.939,64.958c0,35.917-29.116,65.033-65.032,65.033v16.296h-0.003c0,0.033,0.003,0.066,0.003,0.099
					c0,14.339-11.624,25.962-25.962,25.962H147.115c-7.143,0-13.611-2.886-18.305-7.554l127.091,127.091
					c93.172-12.798,168.154-82.639,188.579-173.156L309.576,139.833z"/>
			</g>
		</g>
		<g>
			<polygon fill="#D79938" points="128.707,320.699 128.709,320.7 128.709,320.7 			"/>
		</g>
		<g>
			<path fill="#D79938" d="M128.709,320.7c0.034,0.034,0.067,0.068,0.101,0.101L128.709,320.7L128.709,320.7z"/>
		</g>
	</g>
</g>
</svg>
