<?xml version="1.0" encoding="utf-8"?>
<!-- Generator: Adobe Illustrator 17.0.2, SVG Export Plug-In . SVG Version: 6.00 Build 0)  -->
<!DOCTYPE svg PUBLIC "-//W3C//DTD SVG 1.1//EN" "http://www.w3.org/Graphics/SVG/1.1/DTD/svg11.dtd">
<svg version="1.1" id="Layer_1" xmlns="http://www.w3.org/2000/svg" xmlns:xlink="http://www.w3.org/1999/xlink" x="0px" y="0px"
	 width="170px" height="170px" viewBox="0 0 450 450" enable-background="new 0 0 450 450" xml:space="preserve">
<g>
	<g>
		<g>
			<circle fill="#F4971B" cx="225" cy="225" r="225"/>
		</g>
	</g>
	<g>
		<g>
			<g>
				<polygon fill="#3C4251" points="293.86,86.538 121.154,86.538 121.154,363.119 328.846,363.119 328.846,121.524 				"/>
			</g>
		</g>
		<g>
			<g>
				<polygon fill="#252C3D" points="293.86,121.525 328.846,121.525 293.86,86.538 				"/>
			</g>
		</g>
		<g>
			<g>
				<g>
					<rect x="248.258" y="283.243" fill="#FFFFFF" width="37.319" height="4.327"/>
				</g>
			</g>
			<g>
				<g>
					<rect x="155.769" y="179.396" fill="#FFFFFF" width="68.69" height="4.327"/>
				</g>
			</g>
			<g>
				<g>
					<path fill="none" stroke="#E5E5E5" stroke-width="4.3269" stroke-miterlimit="10" d="M224.459,285.407"/>
				</g>
			</g>
			<g>
				<g>
					<rect x="190.385" y="155.598" fill="#FFFFFF" width="69.231" height="51.923"/>
				</g>
			</g>
			<g>
				<g>
					<rect x="190.385" y="311.368" fill="#FFFFFF" width="69.231" height="34.614"/>
				</g>
			</g>
			<g>
				<g>
					<rect x="190.385" y="276.753" fill="#FFFFFF" width="69.231" height="17.308"/>
				</g>
			</g>
			<g>
				<g>
					<polygon fill="#FFFFFF" points="190.385,120.983 225,103.675 259.615,120.983 225,138.29 					"/>
				</g>
			</g>
			<g>
				<g>
					<polygon fill="#FFFFFF" points="190.385,242.137 225,224.829 259.615,242.137 225,259.445 					"/>
				</g>
			</g>
			<g>
				<g>
					<rect x="222.837" y="121.524" fill="#FFFFFF" width="4.327" height="207.152"/>
				</g>
			</g>
			<g>
				<g>
					<rect x="213.642" y="118.819" fill="#252C3D" width="21.635" height="4.327"/>
				</g>
			</g>
			<g>
				<g>
					<rect x="207.692" y="239.973" fill="#252C3D" width="34.615" height="4.327"/>
				</g>
			</g>
			<g>
				<g>
					<g>
						<rect x="203.365" y="322.186" fill="#252C3D" width="17.308" height="4.327"/>
					</g>
				</g>
				<g>
					<g>
						<rect x="229.327" y="322.186" fill="#252C3D" width="8.654" height="4.327"/>
					</g>
				</g>
				<g>
					<g>
						<rect x="203.365" y="330.84" fill="#252C3D" width="43.269" height="4.327"/>
					</g>
				</g>
			</g>
			<g>
				<g>
					<g>
						<rect x="198.498" y="183.723" fill="#252C3D" width="51.923" height="4.327"/>
					</g>
				</g>
				<g>
					<g>
						<rect x="198.498" y="192.377" fill="#252C3D" width="17.308" height="4.327"/>
					</g>
				</g>
				<g>
					<g>
						<rect x="224.459" y="192.377" fill="#252C3D" width="8.654" height="4.327"/>
					</g>
				</g>
				<g>
					<g>
						<rect x="198.498" y="175.069" fill="#252C3D" width="25.962" height="4.327"/>
					</g>
				</g>
				<g>
					<g>
						<rect x="233.113" y="175.069" fill="#252C3D" width="17.308" height="4.327"/>
					</g>
				</g>
				<g>
					<g>
						<rect x="198.498" y="166.415" fill="#252C3D" width="43.269" height="4.327"/>
					</g>
				</g>
			</g>
			<g>
				<g>
					<rect x="198.498" y="283.243" fill="#252C3D" width="25.962" height="4.327"/>
				</g>
			</g>
			<g>
				<g>
					<rect x="233.113" y="283.243" fill="#252C3D" width="17.308" height="4.327"/>
				</g>
			</g>
			<g>
				<g>
					<rect x="276.923" y="276.753" fill="#FFFFFF" width="34.615" height="17.308"/>
				</g>
			</g>
			<g>
				<g>
					<rect x="138.462" y="164.252" fill="#FFFFFF" width="34.615" height="34.615"/>
				</g>
			</g>
			<g>
				<g>
					<g>
						<rect x="147.115" y="175.069" fill="#252C3D" width="17.308" height="4.327"/>
					</g>
				</g>
				<g>
					<g>
						<rect x="147.115" y="183.723" fill="#252C3D" width="8.654" height="4.327"/>
					</g>
				</g>
			</g>
			<g>
				<g>
					<rect x="285.036" y="283.243" fill="#252C3D" width="17.308" height="4.327"/>
				</g>
			</g>
		</g>
	</g>
	<g>
		<g>
			<path fill="#F07E1B" d="M449.363,242.041L328.846,121.525v241.595H121.154l86.197,86.197C213.174,449.768,219.06,450,225,450
				C343.531,450,440.653,358.344,449.363,242.041z"/>
		</g>
		<g>
			<polygon fill="#252C3D" points="293.86,86.538 328.846,121.525 328.846,121.524 			"/>
		</g>
	</g>
</g>
</svg>
