<?xml version="1.0" encoding="utf-8"?>
<!-- Generator: Adobe Illustrator 17.0.2, SVG Export Plug-In . SVG Version: 6.00 Build 0)  -->
<!DOCTYPE svg PUBLIC "-//W3C//DTD SVG 1.1//EN" "http://www.w3.org/Graphics/SVG/1.1/DTD/svg11.dtd">
<svg version="1.1" id="Layer_1" xmlns="http://www.w3.org/2000/svg" xmlns:xlink="http://www.w3.org/1999/xlink" x="0px" y="0px"
	 width="170px" height="170px" viewBox="0 0 450 450" enable-background="new 0 0 450 450" xml:space="preserve">
<g>
	<g>
		<g>
			<g>
				<circle fill="#F4971B" cx="225" cy="225" r="225"/>
			</g>
		</g>
		<g>
			<g>
				<g>
					<rect x="103.846" y="69.231" fill="#252C3D" width="242.308" height="311.538"/>
				</g>
			</g>
			<g>
				<g>
					<polygon fill="#FFFFFF" points="328.846,86.538 121.154,86.538 121.154,363.462 294.231,363.462 328.846,328.846 					"/>
				</g>
			</g>
			<g>
				<g>
					<polygon fill="#D8D9DA" points="294.231,363.462 328.846,328.846 294.231,328.846 					"/>
				</g>
			</g>
			<g>
				<g>
					<g>
						<rect x="155.769" y="121.154" fill="#252C3D" width="34.615" height="8.654"/>
					</g>
				</g>
				<g>
					<g>
						<rect x="207.692" y="121.154" fill="#252C3D" width="34.615" height="8.654"/>
					</g>
				</g>
				<g>
					<g>
						<rect x="259.615" y="121.154" fill="#252C3D" width="34.615" height="8.654"/>
					</g>
				</g>
				<g>
					<g>
						<rect x="155.769" y="138.462" fill="#252C3D" width="34.615" height="8.654"/>
					</g>
				</g>
				<g>
					<g>
						<rect x="207.692" y="138.462" fill="#252C3D" width="34.615" height="8.654"/>
					</g>
				</g>
				<g>
					<g>
						<rect x="259.615" y="138.462" fill="#252C3D" width="34.615" height="8.654"/>
					</g>
				</g>
				<g>
					<g>
						<rect x="155.769" y="155.769" fill="#252C3D" width="34.615" height="8.654"/>
					</g>
				</g>
				<g>
					<g>
						<rect x="207.692" y="155.769" fill="#252C3D" width="34.615" height="8.654"/>
					</g>
				</g>
				<g>
					<g>
						<rect x="259.615" y="155.769" fill="#252C3D" width="34.615" height="8.654"/>
					</g>
				</g>
				<g>
					<g>
						<rect x="155.769" y="173.077" fill="#252C3D" width="34.615" height="8.654"/>
					</g>
				</g>
				<g>
					<g>
						<rect x="207.692" y="173.077" fill="#252C3D" width="34.615" height="8.654"/>
					</g>
				</g>
				<g>
					<g>
						<rect x="259.615" y="173.077" fill="#252C3D" width="34.615" height="8.654"/>
					</g>
				</g>
				<g>
					<g>
						<rect x="155.769" y="190.385" fill="#252C3D" width="34.615" height="8.654"/>
					</g>
				</g>
				<g>
					<g>
						<rect x="207.692" y="190.385" fill="#252C3D" width="34.615" height="8.654"/>
					</g>
				</g>
				<g>
					<g>
						<rect x="259.615" y="190.385" fill="#252C3D" width="34.615" height="8.654"/>
					</g>
				</g>
				<g>
					<g>
						<rect x="155.769" y="207.692" fill="#252C3D" width="34.615" height="8.654"/>
					</g>
				</g>
				<g>
					<g>
						<rect x="207.692" y="207.692" fill="#252C3D" width="34.615" height="8.654"/>
					</g>
				</g>
				<g>
					<g>
						<rect x="259.615" y="207.692" fill="#252C3D" width="34.615" height="8.654"/>
					</g>
				</g>
				<g>
					<g>
						<rect x="155.769" y="225" fill="#252C3D" width="34.615" height="8.654"/>
					</g>
				</g>
				<g>
					<g>
						<rect x="207.692" y="225" fill="#252C3D" width="34.615" height="8.654"/>
					</g>
				</g>
				<g>
					<g>
						<rect x="259.615" y="225" fill="#252C3D" width="34.615" height="8.654"/>
					</g>
				</g>
				<g>
					<g>
						<rect x="155.769" y="242.308" fill="#252C3D" width="34.615" height="8.654"/>
					</g>
				</g>
				<g>
					<g>
						<rect x="207.692" y="242.308" fill="#252C3D" width="34.615" height="8.654"/>
					</g>
				</g>
				<g>
					<g>
						<rect x="259.615" y="242.308" fill="#252C3D" width="34.615" height="8.654"/>
					</g>
				</g>
				<g>
					<g>
						<rect x="155.769" y="259.615" fill="#252C3D" width="34.615" height="8.654"/>
					</g>
				</g>
				<g>
					<g>
						<rect x="207.692" y="259.615" fill="#252C3D" width="34.615" height="8.654"/>
					</g>
				</g>
				<g>
					<g>
						<rect x="259.615" y="259.615" fill="#252C3D" width="34.615" height="8.654"/>
					</g>
				</g>
				<g>
					<g>
						<rect x="155.769" y="276.923" fill="#252C3D" width="34.615" height="8.654"/>
					</g>
				</g>
				<g>
					<g>
						<rect x="207.692" y="276.923" fill="#252C3D" width="34.615" height="8.654"/>
					</g>
				</g>
				<g>
					<g>
						<rect x="259.615" y="276.923" fill="#252C3D" width="34.615" height="8.654"/>
					</g>
				</g>
				<g>
					<g>
						<rect x="155.769" y="294.231" fill="#252C3D" width="34.615" height="8.654"/>
					</g>
				</g>
				<g>
					<g>
						<rect x="207.692" y="294.231" fill="#252C3D" width="34.615" height="8.654"/>
					</g>
				</g>
				<g>
					<g>
						<rect x="259.615" y="294.231" fill="#252C3D" width="34.615" height="8.654"/>
					</g>
				</g>
				<g>
					<g>
						<rect x="155.769" y="311.538" fill="#252C3D" width="34.615" height="8.654"/>
					</g>
				</g>
				<g>
					<g>
						<rect x="207.692" y="311.538" fill="#252C3D" width="34.615" height="8.654"/>
					</g>
				</g>
				<g>
					<g>
						<rect x="259.615" y="311.538" fill="#252C3D" width="34.615" height="8.654"/>
					</g>
				</g>
			</g>
			<g>
				<g>
					<path fill="#EEA839" d="M259.615,77.885c-9.56,0-17.308-7.749-17.308-17.308c0-9.559-7.749-17.308-17.308-17.308
						c-9.56,0-17.308,7.749-17.308,17.308c0,9.559-7.749,17.308-17.308,17.308c-9.56,0-17.308,7.749-17.308,17.308v4.327v4.327
						l4.327-4.327l4.327,4.327l4.327-4.327l4.327,4.327l4.327-4.327l4.327,4.327l4.327-4.327l4.327,4.327l4.327-4.327l4.327,4.327
						l4.327-4.327l4.327,4.327l4.327-4.327l4.327,4.327l4.327-4.327l4.327,4.327l4.327-4.327l4.327,4.327l4.327-4.327l4.327,4.327
						l4.327-4.327l4.327,4.327l4.327-4.327l4.327,4.327v-4.327v-4.327C276.923,85.634,269.174,77.885,259.615,77.885z M225,64.904
						c-2.391,0-4.327-1.937-4.327-4.327c0-2.39,1.936-4.327,4.327-4.327c2.39,0,4.327,1.937,4.327,4.327
						C229.327,62.966,227.39,64.904,225,64.904z"/>
				</g>
			</g>
		</g>
	</g>
	<g>
		<g>
			<path fill="#5D9EA7" d="M225,64.904c2.39,0,4.327-1.937,4.327-4.327c0-1.195-0.484-2.277-1.268-3.06l-6.119,6.119
				C222.723,64.42,223.805,64.904,225,64.904z"/>
		</g>
		<g>
			<path fill="#5D9EA7" d="M220.673,60.577c0,1.195,0.484,2.277,1.267,3.06l6.119-6.119c-0.783-0.783-1.864-1.267-3.059-1.267
				C222.609,56.25,220.673,58.187,220.673,60.577z"/>
		</g>
		<g>
			<polygon fill="#5D9EA7" points="346.154,69.231 346.154,69.231 346.154,69.231 			"/>
		</g>
		<g>
			<path fill="#5D9EA7" d="M242.308,60.577c0,3.154,0.847,6.107,2.321,8.654h13.502l-20.892-20.892l0,0
				C240.37,51.47,242.308,55.798,242.308,60.577z"/>
		</g>
		<g>
			<polygon fill="#5D9EA7" points="103.846,380.769 103.846,380.769 103.846,380.769 			"/>
		</g>
		<g>
			<path fill="#F07E1B" d="M441.901,164.978l-95.747-95.747v88.024v223.515H103.846l61.132,61.132
				C184.087,447.177,204.213,450,225,450c112.843,0,206.282-83.071,222.504-191.396C449.146,247.641,450,236.42,450,225
				C450,204.213,447.177,184.087,441.901,164.978z"/>
		</g>
	</g>
</g>
</svg>
