<?xml version="1.0" encoding="utf-8"?>
<!-- Generator: Adobe Illustrator 17.0.2, SVG Export Plug-In . SVG Version: 6.00 Build 0)  -->
<!DOCTYPE svg PUBLIC "-//W3C//DTD SVG 1.1//EN" "http://www.w3.org/Graphics/SVG/1.1/DTD/svg11.dtd">
<svg version="1.1" id="Layer_1" xmlns="http://www.w3.org/2000/svg" xmlns:xlink="http://www.w3.org/1999/xlink" x="0px" y="0px"
	 width="155px" height="35px" viewBox="0 0 155 35" enable-background="new 0 0 155 35" xml:space="preserve">
<g>
	<path fill="#FF7911" d="M145.825,11.84c-3.711,0-6.616,3.168-6.616,6.645c0,0.67,0.124,3.914,3.788,6.096
		c1.357,0.808,1.62,2.973,0.386,4.019c-0.209,0.177-0.208,0.62,0.133,0.62c0.343,0,1.397-0.238,2.948-0.949
		c3.385-1.552,6.064-5.45,6.035-9.71C152.475,14.85,149.536,11.84,145.825,11.84z"/>
	<path fill="#2B61B4" d="M131.565,2.405c3.711,0,6.616,3.168,6.616,6.645c0,0.67-0.124,3.914-3.788,6.096
		c-1.357,0.808-1.62,2.973-0.386,4.019c0.209,0.177,0.208,0.62-0.133,0.62c-0.343,0-1.397-0.238-2.948-0.949
		c-3.385-1.552-6.064-5.45-6.035-9.71C124.915,5.415,127.854,2.405,131.565,2.405z"/>
	<path fill="#FF7911" d="M25.833,11.736c-6.418,0-8.311,3.58-8.311,7.817v5.306c0,4.814,2.181,7.735,8.475,7.735
		c2.386,0,5.102-0.411,7.364-1.275l-0.781-3.785c-2.181,0.658-4.197,0.947-6.13,0.947c-3.045,0-3.909-0.947-3.909-3.374v-1.029
		h11.149V19.8C33.691,15.48,32.252,11.736,25.833,11.736 M28.919,20.047h-6.377V19.06c0-1.893,0.864-3.209,3.332-3.209
		s3.045,1.317,3.045,3.209V20.047z"/>
	<path fill="#FF7911" d="M46.061,11.736c-6.418,0-8.311,3.58-8.311,7.817v5.306c0,4.814,2.18,7.735,8.475,7.735
		c2.386,0,5.102-0.411,7.365-1.275l-0.782-3.785c-2.181,0.658-4.197,0.947-6.131,0.947c-3.045,0-3.909-0.947-3.909-3.374v-1.029
		h11.151V19.8C53.919,15.48,52.48,11.736,46.061,11.736 M49.146,20.047h-6.378V19.06c0-1.893,0.865-3.209,3.333-3.209
		c2.468,0,3.045,1.317,3.045,3.209V20.047z"/>
	<polygon fill="#FF7911" points="66.042,27.37 61.475,12.148 56.333,12.148 62.751,32.184 69.375,32.184 75.793,12.148 
		70.65,12.148 	"/>
	<path fill="#FF7911" d="M86.929,11.737c-6.871,0-8.723,3.785-8.723,7.899v5.061c0,4.114,1.852,7.899,8.723,7.899
		c6.87,0,8.722-3.785,8.722-7.899v-5.061C95.65,15.522,93.799,11.737,86.929,11.737 M90.631,24.86c0,2.263-1.029,3.457-3.702,3.457
		c-2.675,0-3.703-1.194-3.703-3.457v-5.389c0-2.263,1.029-3.457,3.703-3.457c2.674,0,3.702,1.194,3.702,3.457V24.86z"/>
	<path fill="#FF7911" d="M108.636,11.737c-6.871,0-8.722,3.785-8.722,7.899v5.061c0,4.114,1.851,7.899,8.722,7.899
		c6.873,0,8.724-3.785,8.724-7.899v-5.061C117.36,15.522,115.509,11.737,108.636,11.737 M112.34,24.86
		c0,2.263-1.03,3.457-3.704,3.457c-2.674,0-3.703-1.194-3.703-3.457v-5.389c0-2.263,1.029-3.457,3.703-3.457
		c2.674,0,3.704,1.194,3.704,3.457V24.86z"/>
	<path fill="#FF7911" d="M7.067,14.37l-0.329-2.222H2.5v20.036h5.019L7.519,19.136c0,0,1.262-1.129,2.894-1.941
		c1.632-0.812,3.825-0.539,3.825-0.539l0.274-4.305c0,0-2.45-0.337-4.184,0.237C8.525,13.187,7.067,14.37,7.067,14.37"/>
</g>
</svg>
